<!-- public/favicon.svg -->
<svg xmlns="http://www.w3.org/2000/svg"
     width="32" height="32" viewBox="0 0 24 24">
  <defs>
    <linearGradient id="grad" x1="0%" y1="0%" x2="100%" y2="0%">
      <stop offset="0%" stop-color="#3B82F6"/>
      <stop offset="100%" stop-color="#9333EA"/>
    </linearGradient>
  </defs>

  <!-- Círculo de fondo completo -->
  <circle cx="12" cy="12" r="12" fill="url(#grad)" />

  <!-- Grupo centrado y escalado -->
  <g transform="translate(3,3) scale(0.75)">
    <path
      d="M21 11.5
         a8.38 8.38 0 0 1-.9 3.8
         8.5 8.5 0 0 1-7.6 4.7
         8.38 8.38 0 0 1-3.8-.9
         L3 21l1.9-5.7
         a8.38 8.38 0 0 1-.9-3.8
         8.5 8.5 0 0 1 4.7-7.6
         8.38 8.38 0 0 1 3.8-.9
         h.5
         a8.48 8.48 0 0 1 8 8
         v.5z"
      fill="none"
      stroke="#fff"
      stroke-width="2"
      stroke-linecap="round"
      stroke-linejoin="round"
    />
  </g>
</svg>
